HIERARCHY
ROOT Hips
{
 OFFSET 0.000000 0.000000 0.000000
 CHANNELS 6 Xposition Yposition Zposition Yrotation Xrotation Zrotation
 JOINT Chest
 {
  OFFSET 0.000000 9.588913 -0.003946
  CHANNELS 3 Yrotation Xrotation Zrotation
  JOINT Chest2
  {
   OFFSET 0.000000 9.541882 0.008053
   CHANNELS 3 Yrotation Xrotation Zrotation
   JOINT Chest3
   {
    OFFSET 0.000000 9.501360 0.000000
    CHANNELS 3 Yrotation Xrotation Zrotation
    JOINT Chest4
    {
     OFFSET 0.000000 9.491660 0.000000
     CHANNELS 3 Yrotation Xrotation Zrotation
     JOINT Neck
     {
      OFFSET 0.000000 14.331917 0.000000
      CHANNELS 3 Yrotation Xrotation Zrotation
      JOINT Head
      {
       OFFSET 0.000000 8.884799 0.017034
       CHANNELS 3 Yrotation Xrotation Zrotation
       End Site
       {
        OFFSET 0.000000 16.896195 0.008993
       }
      }
     }
     JOINT RightCollar
     {
      OFFSET -2.923010 9.499495 0.000000
      CHANNELS 3 Yrotation Xrotation Zrotation
      JOINT RightShoulder
      {
       OFFSET -13.795216 0.000000 0.000000
       CHANNELS 3 Yrotation Xrotation Zrotation
       JOINT RightElbow
       {
        OFFSET -30.272209 0.000000 0.000000
        CHANNELS 3 Yrotation Xrotation Zrotation
        JOINT RightWrist
        {
         OFFSET -24.478199 0.000000 0.000000
         CHANNELS 3 Yrotation Xrotation Zrotation
         End Site
         {
          OFFSET -18.090752 0.000000 0.000000
         }
        }
       }
      }
     }
     JOINT LeftCollar
     {
      OFFSET 2.923010 9.499495 0.000000
      CHANNELS 3 Yrotation Xrotation Zrotation
      JOINT LeftShoulder
      {
       OFFSET 13.795216 0.000000 0.000000
       CHANNELS 3 Yrotation Xrotation Zrotation
       JOINT LeftElbow
       {
        OFFSET 30.272209 0.000000 0.000000
        CHANNELS 3 Yrotation Xrotation Zrotation
        JOINT LeftWrist
        {
         OFFSET 24.478199 0.000000 0.000000
         CHANNELS 3 Yrotation Xrotation Zrotation
         End Site
         {
          OFFSET 18.090752 0.000000 0.000000
         }
        }
       }
      }
     }
    }
   }
  }
 }
 JOINT RightHip
 {
  OFFSET -7.826875 0.019532 0.001973
  CHANNELS 3 Yrotation Xrotation Zrotation
  JOINT RightKnee
  {
   OFFSET 0.000000 -40.546152 -0.001885
   CHANNELS 3 Yrotation Xrotation Zrotation
   JOINT RightAnkle
   {
    OFFSET 0.000000 -39.417092 -0.003189
    CHANNELS 3 Yrotation Xrotation Zrotation
    JOINT RightToe
    {
     OFFSET 0.000000 -7.579396 17.243563
     CHANNELS 3 Yrotation Xrotation Zrotation
     End Site
     {
      OFFSET 0.000000 -1.500329 6.694466
     }
    }
   }
  }
 }
 JOINT LeftHip
 {
  OFFSET 7.826875 0.019532 0.001973
  CHANNELS 3 Yrotation Xrotation Zrotation
  JOINT LeftKnee
  {
   OFFSET 0.000000 -40.546152 -0.001885
   CHANNELS 3 Yrotation Xrotation Zrotation
   JOINT LeftAnkle
   {
    OFFSET 0.000000 -39.417092 -0.003189
    CHANNELS 3 Yrotation Xrotation Zrotation
    JOINT LeftToe
    {
     OFFSET 0.000000 -7.579396 17.243563
     CHANNELS 3 Yrotation Xrotation Zrotation
     End Site
     {
      OFFSET 0.000000 -1.500329 6.694466
     }
    }
   }
  }
 }
}
MOTION
Frames: 11
Frame Time: 0.008333
0.000000 87.345680 0.000000 0.000000 -5.767889 0.000000 0.000000 11.653876 0.000000 0.000000 -5.885988 0.000000 0.000000 -0.000000 0.000000 0.000000 -0.000000 0.000000 0.000000 12.528808 0.000000 0.000000 0.711711 0.000000 0.000000 -0.000000 0.000000 0.000000 -0.000000 0.000000 2.309063 -0.000000 0.000000 -2.309063 -0.000000 -0.000000 0.000000 -0.000000 0.000000 0.000000 0.000000 0.000000 -2.309063 0.000000 0.000000 2.309063 -0.000000 0.000000 0.000000 8.520374 0.000000 0.000000 1.905768 0.000000 -0.000000 -4.658254 0.000000 0.000000 -0.000000 0.000000 0.000000 8.520374 0.000000 0.000000 1.905768 0.000000 -0.000000 -4.658254 0.000000 0.000000 -0.000000 0.000000
-3.320064 87.571324 -30.453569 134.271786 -10.510574 1.958527 2.190419 3.388525 -0.561923 1.198140 1.937909 -0.154584 1.497072 2.422858 -0.186918 1.198140 1.937909 -0.154584 -7.987313 29.887752 3.501464 -9.834065 8.346014 5.761854 -0.003472 0.932111 0.874971 -10.897778 8.189376 79.262493 8.346835 4.257755 0.646604 -3.425154 -0.391855 3.358976 -0.988393 0.988852 3.906858 9.411336 2.991123 -89.174206 -4.148416 2.463208 -1.437892 -0.487256 1.462117 0.632508 -7.671785 17.983605 -15.978241 1.609994 1.326158 -0.640846 0.122955 -7.583180 11.958184 0.104317 -0.492098 0.048495 12.375838 13.532708 9.906709 7.909864 -0.975845 -0.753137 0.665118 -3.109694 -6.953471 0.072225 0.502053 0.036439
-3.319196 87.571544 -30.465637 134.271246 -10.521411 1.951365 2.175915 3.377118 -0.566088 1.188920 1.931101 -0.155095 1.485543 2.414346 -0.187627 1.188920 1.931101 -0.155095 -8.496716 30.232113 3.707379 -10.491369 8.900158 6.120389 0.079590 0.862630 0.841160 -11.125760 8.055215 78.811771 8.305340 4.413053 0.543306 -3.576478 -0.324296 3.421635 -0.919925 1.003412 3.909695 9.432403 3.000918 -89.183513 -4.265770 2.422042 -1.585703 -0.458290 1.468922 0.570173 -7.668361 17.991447 -15.974295 1.613821 1.343755 -0.647033 0.118009 -7.585143 11.966017 0.105481 -0.499505 0.048881 12.393115 13.549613 9.915355 7.909698 -0.979834 -0.755670 0.659249 -3.115796 -6.948654 0.073501 0.506676 0.035904
-3.319973 87.571565 -30.479493 134.271052 -10.527574 1.948186 2.158597 3.362940 -0.570894 1.177884 1.923305 -0.156520 1.471741 2.404602 -0.189492 1.177884 1.923305 -0.156520 -9.015615 30.581625 3.907455 -11.163297 9.470915 6.475419 0.167085 0.790878 0.802340 -11.355329 7.919919 78.346843 8.273971 4.515154 0.446046 -3.692679 -0.284858 3.458269 -0.852685 1.024718 3.911704 9.445615 3.011422 -89.189865 -4.404012 2.427295 -1.719534 -0.440070 1.499796 0.539357 -7.661935 17.994615 -15.974912 1.617614 1.362600 -0.653556 0.112266 -7.588657 11.975400 0.106428 -0.506749 0.049835 12.402654 13.559236 9.915112 7.908540 -0.974118 -0.754607 0.657202 -3.127449 -6.944540 0.074839 0.510389 0.035708
-3.322127 87.571417 -30.494788 134.272394 -10.530793 1.948241 2.137512 3.347511 -0.575564 1.164691 1.915223 -0.158190 1.455240 2.394500 -0.191674 1.164691 1.915223 -0.158190 -9.540677 30.933777 4.097233 -11.844977 10.054198 6.820815 0.256192 0.721941 0.759601 -11.583925 7.774865 77.867425 8.255514 4.567543 0.355681 -3.774417 -0.279333 3.471068 -0.783529 1.050756 3.911716 9.446363 3.019654 -89.192985 -4.555015 2.479809 -1.833583 -0.434261 1.539971 0.535596 -7.658081 17.995478 -15.981591 1.619308 1.379305 -0.658003 0.108481 -7.591826 11.986174 0.107147 -0.513579 0.050045 12.405356 13.563432 9.907762 7.906011 -0.960393 -0.750756 0.657359 -3.143558 -6.940056 0.075826 0.512962 0.035118
-3.325223 87.571126 -30.511063 134.273240 -10.532432 1.950319 2.113419 3.333219 -0.579885 1.150094 1.907625 -0.159964 1.436983 2.385002 -0.193992 1.150094 1.907625 -0.159964 -10.070225 31.286291 4.274437 -12.533965 10.646479 7.153303 0.342491 0.654846 0.713082 -11.815483 7.615246 77.377993 8.254209 4.575279 0.275277 -3.821828 -0.301505 3.462185 -0.711560 1.077754 3.909397 9.430428 3.024283 -89.194999 -4.710582 2.571688 -1.924113 -0.443607 1.579228 0.549784 -7.660028 17.993939 -15.994120 1.619892 1.393933 -0.659204 0.108455 -7.594313 11.996292 0.107857 -0.519495 0.050236 12.406187 13.565417 9.897150 7.904434 -0.943401 -0.746996 0.655793 -3.161212 -6.933795 0.077124 0.514287 0.034043
-3.328967 87.570726 -30.528135 134.271039 -10.533634 1.954658 2.088655 3.321015 -0.584797 1.135402 1.900800 -0.162045 1.418608 2.376473 -0.196691 1.135402 1.900800 -0.162045 -10.602910 31.637343 4.439358 -13.228787 11.245027 7.472602 0.423013 0.586683 0.659353 -12.057596 7.443310 76.889697 8.274677 4.541199 0.205379 -3.838654 -0.342179 3.427968 -0.640009 1.105300 3.905419 9.397415 3.023394 -89.195407 -4.863066 2.688276 -1.995135 -0.469644 1.616156 0.579893 -7.667381 17.990764 -16.011945 1.621105 1.406074 -0.658911 0.112142 -7.595963 12.005924 0.108511 -0.524152 0.050792 12.408166 13.569035 9.883721 7.906090 -0.928410 -0.743696 0.652004 -3.176793 -6.927389 0.078798 0.514292 0.033997
-3.333313 87.570202 -30.545787 134.265071 -10.533853 1.961330 2.064435 3.310172 -0.590801 1.121050 1.894466 -0.164303 1.400654 2.368556 -0.199608 1.121050 1.894466 -0.164303 -11.135013 31.984391 4.592620 -13.925094 11.845585 7.778267 0.497760 0.515444 0.596630 -12.313642 7.264093 76.411876 8.319572 4.469965 0.141003 -3.825988 -0.398505 3.363500 -0.572800 1.133722 3.901208 9.357631 3.017689 -89.192727 -5.006724 2.817965 -2.051889 -0.511665 1.646465 0.616156 -7.679331 17.986197 -16.034838 1.624522 1.414007 -0.657423 0.117971 -7.595956 12.016486 0.108963 -0.527490 0.050654 12.409553 13.575012 9.867775 7.909571 -0.917006 -0.742766 0.650219 -3.189214 -6.920129 0.080376 0.513516 0.034935
-3.338165 87.569527 -30.563701 134.252782 -10.532101 1.969486 2.040845 3.299978 -0.596552 1.107177 1.888358 -0.166245 1.383302 2.360922 -0.202126 1.107177 1.888359 -0.166245 -11.662068 32.323342 4.733417 -14.617070 12.441159 8.068022 0.570160 0.442275 0.526854 -12.581984 7.076774 75.947146 8.387306 4.361422 0.077466 -3.781751 -0.466951 3.267474 -0.511381 1.162841 3.897218 9.321274 3.009796 -89.188711 -5.139339 2.948238 -2.100931 -0.561581 1.662337 0.644878 -7.692968 17.978016 -16.060974 1.632684 1.419821 -0.655509 0.125482 -7.595066 12.028051 0.109156 -0.529733 0.050083 12.409717 13.583743 9.849400 7.910888 -0.911008 -0.742518 0.655570 -3.198401 -6.911834 0.081613 0.512548 0.035357
-3.343535 87.568696 -30.581776 134.232347 -10.528028 1.979146 2.017744 3.289709 -0.601016 1.093840 1.882221 -0.167748 1.366622 2.353249 -0.204091 1.093840 1.882221 -0.167748 -12.180066 32.651751 4.861119 -15.299407 13.026904 8.339955 0.640066 0.369619 0.452668 -12.856839 6.880748 75.494409 8.477567 4.216795 0.014436 -3.707072 -0.546963 3.138333 -0.452843 1.194041 3.892775 9.285081 3.001115 -89.186619 -5.259978 3.054785 -2.150324 -0.606518 1.666052 0.662197 -7.703283 17.965011 -16.088157 1.644556 1.426574 -0.655156 0.134864 -7.594856 12.040009 0.108865 -0.530959 0.050345 12.408959 13.595229 9.827567 7.911098 -0.910487 -0.740181 0.667168 -3.205171 -6.904249 0.082246 0.511514 0.035235
-3.349327 87.567771 -30.600230 134.207993 -10.523679 1.990069 1.995205 3.279513 -0.604608 1.080906 1.876428 -0.169115 1.350448 2.346007 -0.205885 1.080906 1.876429 -0.169115 -12.685711 32.968697 4.977654 -15.968268 13.600432 8.595369 0.701108 0.297882 0.375841 -13.133588 6.681036 75.051187 8.594927 4.045621 -0.046217 -3.604788 -0.639161 2.978872 -0.397435 1.227190 3.889572 9.244688 2.994092 -89.188576 -5.365840 3.120273 -2.202538 -0.642045 1.663264 0.669929 -7.708924 17.951062 -16.116136 1.655968 1.434347 -0.654602 0.144252 -7.595291 12.050219 0.108096 -0.531671 0.052165 12.405839 13.609789 9.803592 7.912518 -0.913074 -0.737590 0.681333 -3.211221 -6.897609 0.082023 0.510632 0.035657
